# xmcd
#
# Track frame offsets:
#	150
#	19405
#	40385
#	60559
#	78429
#	96221
#	112679
#	133386
#	154356
#	175937
#	195008
#	211072
#	225520
#	243075
#	262701
#	280483
#
# Disc length: 3997 seconds
#
# Revision: 3
# Processed by: cddbd v1.5.2PL0 Copyright (c) Steve Scherf et al.
# Submitted via: EasyCDDAExtractor 12.1.0.1
#
DISCID=cd0f9b10
DTITLE=eysuhl™ 윤미래 - 윤미래 [2003 KM dmk153-2] Best
DYEAR=2003
DGENRE=Hip-Hop
TTITLE0=To My Love
TTITLE1=바보
TTITLE2=시간이 흐른 뒤
TTITLE3=선물
TTITLE4=끝없는 바다 저편에
TTITLE5=남자 남자 남자
TTITLE6=Tuesday
TTITLE7=Concrete Jungle
TTITLE8=행복한 나를
TTITLE9=집으로 와
TTITLE10=I Miss You So
TTITLE11=지화자 (G火자)
TTITLE12=Wonder Woman
TTITLE13=Because I Love You
TTITLE14=찬 바람아
TTITLE15=하루 하
EXTD=
EXTT0=
EXTT1=
EXTT2=
EXTT3=
EXTT4=
EXTT5=
EXTT6=
EXTT7=
EXTT8=
EXTT9=
EXTT10=
EXTT11=
EXTT12=
EXTT13=
EXTT14=
EXTT15=
PLAYORDER=
